<svg xmlns="http://www.w3.org/2000/svg" xmlns:xlink="http://www.w3.org/1999/xlink" width="79" zoomAndPan="magnify" viewBox="0 0 59.25 68.249997" height="91" preserveAspectRatio="xMidYMid meet" version="1.0"><defs><filter x="0%" y="0%" width="100%" height="100%" id="eb6da96e62"><feColorMatrix values="0 0 0 0 1 0 0 0 0 1 0 0 0 0 1 0 0 0 1 0" color-interpolation-filters="sRGB"/></filter><clipPath id="6fb60b7c51"><path d="M 0 0.0546875 L 58.507812 0.0546875 L 58.507812 67.453125 L 0 67.453125 Z M 0 0.0546875 " clip-rule="nonzero"/></clipPath><clipPath id="2e1fa2a337"><path d="M 0.664062 50 L 17 50 L 17 67.453125 L 0.664062 67.453125 Z M 0.664062 50 " clip-rule="nonzero"/></clipPath><clipPath id="a3d1b77968"><path d="M 0.664062 0.0585938 L 57.691406 0.0585938 L 57.691406 58 L 0.664062 58 Z M 0.664062 0.0585938 " clip-rule="nonzero"/></clipPath><clipPath id="3281d712f5"><path d="M 0.664062 0.0585938 L 30 0.0585938 L 30 58 L 0.664062 58 Z M 0.664062 0.0585938 " clip-rule="nonzero"/></clipPath><mask id="a59302ce51"><g filter="url(#eb6da96e62)"><rect x="-5.925" width="71.1" fill="#000000" y="-6.825" height="81.899996" fill-opacity="0.15"/></g></mask><clipPath id="acb71eefa5"><path d="M 0.664062 0.0585938 L 29.863281 0.0585938 L 29.863281 57.882812 L 0.664062 57.882812 Z M 0.664062 0.0585938 " clip-rule="nonzero"/></clipPath><clipPath id="ba30716215"><rect x="0" width="30" y="0" height="58"/></clipPath><clipPath id="9a65d0a7b9"><path d="M 11.65625 8 L 47.207031 8 L 47.207031 52.089844 L 11.65625 52.089844 Z M 11.65625 8 " clip-rule="nonzero"/></clipPath><clipPath id="fdd6400b0b"><path d="M 26 6.910156 L 33 6.910156 L 33 13 L 26 13 Z M 26 6.910156 " clip-rule="nonzero"/></clipPath></defs><g clip-path="url(#6fb60b7c51)"><path fill="#ffffff" d="M 0 0.0546875 L 58.507812 0.0546875 L 58.507812 67.453125 L 0 67.453125 Z M 0 0.0546875 " fill-opacity="1" fill-rule="nonzero"/></g><g clip-path="url(#2e1fa2a337)"><path fill="#e8959a" d="M 0.742188 53.410156 L 0.742188 57.203125 L 16.324219 67.417969 L 16.324219 50.734375 Z M 0.742188 53.410156 " fill-opacity="1" fill-rule="nonzero"/></g><g clip-path="url(#a3d1b77968)"><path fill="#f4c1bf" d="M 0.742188 0.0234375 L 57.636719 0.0234375 L 57.636719 57.171875 L 0.742188 57.171875 Z M 0.742188 0.0234375 " fill-opacity="1" fill-rule="nonzero"/></g><g clip-path="url(#3281d712f5)"><g mask="url(#a59302ce51)"><g transform="matrix(1, 0, 0, 1, 0, 0.000000000000014148)"><g clip-path="url(#ba30716215)"><g clip-path="url(#acb71eefa5)"><path fill="#f4c1bf" d="M 0.742188 0.0234375 L 29.191406 0.0234375 L 29.191406 57.171875 L 0.742188 57.171875 Z M 0.742188 0.0234375 " fill-opacity="1" fill-rule="nonzero"/></g></g></g></g></g><path fill="#f4c1bf" d="M 31.609375 15.371094 C 24.644531 13.980469 17.875 18.523438 16.488281 25.515625 C 15.105469 32.515625 19.625 39.3125 26.589844 40.703125 C 33.554688 42.097656 40.324219 37.554688 41.710938 30.558594 C 43.097656 23.5625 38.574219 16.761719 31.609375 15.371094 Z M 35.582031 18.40625 C 36.816406 19.246094 37.863281 20.308594 38.683594 21.527344 L 37.617188 22.246094 C 36.878906 21.152344 35.957031 20.222656 34.875 19.484375 C 34.875 19.484375 34.871094 19.484375 34.871094 19.480469 Z M 31.292969 16.625 L 31.042969 17.890625 C 29.746094 17.640625 28.441406 17.640625 27.15625 17.890625 L 26.902344 16.625 C 28.316406 16.351562 29.800781 16.335938 31.292969 16.625 Z M 19 29.992188 L 17.738281 30.242188 C 17.464844 28.828125 17.449219 27.335938 17.738281 25.832031 L 19 26.085938 C 18.75 27.386719 18.75 28.703125 19 29.992188 Z M 22.617188 18.410156 L 23.332031 19.484375 C 22.246094 20.222656 21.320312 21.148438 20.585938 22.234375 C 20.582031 22.238281 20.582031 22.242188 20.582031 22.242188 L 19.511719 21.523438 C 20.347656 20.289062 21.40625 19.234375 22.617188 18.410156 Z M 22.617188 37.667969 C 21.382812 36.832031 20.335938 35.769531 19.515625 34.550781 L 20.585938 33.832031 C 21.320312 34.925781 22.242188 35.855469 23.324219 36.589844 C 23.328125 36.59375 23.328125 36.59375 23.332031 36.59375 Z M 26.90625 39.449219 L 27.15625 38.183594 C 28.453125 38.433594 29.761719 38.4375 31.046875 38.183594 L 31.296875 39.453125 C 29.886719 39.726562 28.402344 39.742188 26.90625 39.449219 Z M 29.027344 33.777344 C 29.027344 33.777344 23.050781 30.9375 23.179688 27.003906 C 23.238281 25.269531 24.585938 23.859375 26.316406 23.859375 C 27.472656 23.859375 28.484375 24.484375 29.027344 25.417969 C 29.574219 24.484375 30.582031 23.859375 31.738281 23.859375 C 33.472656 23.859375 34.820312 25.269531 34.878906 27.003906 C 35.003906 30.9375 29.027344 33.777344 29.027344 33.777344 Z M 35.582031 37.664062 L 34.867188 36.59375 C 35.957031 35.851562 36.878906 34.929688 37.613281 33.839844 C 37.617188 33.835938 37.617188 33.835938 37.617188 33.832031 L 38.6875 34.550781 C 37.855469 35.789062 36.796875 36.84375 35.582031 37.664062 Z M 40.460938 30.242188 L 39.199219 29.988281 C 39.449219 28.6875 39.449219 27.375 39.203125 26.085938 L 40.464844 25.832031 C 40.738281 27.25 40.75 28.742188 40.460938 30.242188 Z M 40.460938 30.242188 " fill-opacity="1" fill-rule="nonzero"/><g clip-path="url(#9a65d0a7b9)"><path fill="#ffffff" d="M 32.332031 37.566406 C 33.175781 37.566406 33.960938 37.398438 34.75 37.121094 C 36.382812 36.453125 37.675781 35.230469 38.351562 33.671875 L 46.964844 14.03125 C 47.078125 13.808594 47.078125 13.585938 46.964844 13.417969 C 46.910156 13.195312 46.738281 13.03125 46.515625 12.976562 L 35.988281 8.46875 C 35.765625 8.355469 35.539062 8.355469 35.371094 8.46875 C 35.144531 8.523438 34.976562 8.691406 34.917969 8.914062 L 29.460938 21.320312 L 24 8.859375 C 23.886719 8.636719 23.71875 8.46875 23.550781 8.414062 C 23.324219 8.355469 23.097656 8.355469 22.929688 8.414062 L 12.40625 12.917969 C 11.953125 13.085938 11.785156 13.585938 11.953125 14.03125 L 20.566406 33.671875 C 21.636719 36.121094 24.054688 37.621094 26.589844 37.566406 C 27.207031 37.566406 27.769531 37.457031 28.390625 37.289062 L 28.558594 37.679688 L 23.664062 48.859375 L 21.523438 47.914062 C 21.074219 47.75 20.621094 47.914062 20.398438 48.359375 C 20.230469 48.804688 20.398438 49.25 20.847656 49.472656 L 26.703125 51.976562 C 26.8125 52.03125 26.925781 52.03125 27.039062 52.03125 C 27.378906 52.03125 27.660156 51.867188 27.828125 51.53125 C 27.996094 51.085938 27.828125 50.640625 27.378906 50.417969 L 25.238281 49.472656 L 29.460938 39.792969 L 33.738281 49.527344 L 31.597656 50.476562 C 31.148438 50.640625 30.980469 51.140625 31.148438 51.585938 C 31.261719 51.921875 31.597656 52.089844 31.9375 52.089844 C 32.050781 52.089844 32.160156 52.089844 32.273438 52.03125 L 38.128906 49.527344 C 38.578125 49.363281 38.746094 48.859375 38.578125 48.417969 C 38.410156 47.972656 37.902344 47.804688 37.453125 47.972656 L 35.3125 48.917969 L 30.417969 37.734375 L 30.585938 37.34375 C 31.148438 37.511719 31.765625 37.566406 32.332031 37.566406 Z M 36.101562 10.25 L 45.105469 14.085938 L 36.832031 33.003906 C 36.328125 34.171875 35.371094 35.117188 34.132812 35.5625 C 32.894531 36.0625 31.597656 36.007812 30.359375 35.507812 C 27.882812 34.449219 26.757812 31.613281 27.828125 29.164062 Z M 22.085938 33.003906 L 13.8125 14.085938 L 22.816406 10.25 L 28.558594 23.378906 L 27.769531 25.105469 L 24.28125 17.203125 L 17.808594 19.984375 L 23.15625 32.058594 C 23.773438 33.449219 25.125 34.226562 26.589844 34.171875 C 26.925781 34.785156 27.320312 35.339844 27.828125 35.785156 C 25.519531 36.34375 23.042969 35.230469 22.085938 33.003906 Z M 22.085938 33.003906 " fill-opacity="1" fill-rule="nonzero"/></g><path fill="#ffffff" d="M 31.148438 33.839844 C 32.949219 34.617188 35.03125 33.785156 35.765625 32.003906 L 41.054688 19.929688 L 34.582031 17.148438 L 29.289062 29.277344 C 28.558594 31.058594 29.347656 33.058594 31.148438 33.839844 Z M 31.148438 33.839844 " fill-opacity="1" fill-rule="nonzero"/><g clip-path="url(#fdd6400b0b)"><path fill="#ffffff" d="M 29.460938 12.640625 C 29.460938 12.640625 32.554688 10.859375 32.554688 8.578125 C 32.554688 7.632812 31.765625 6.910156 30.867188 6.910156 C 30.304688 6.910156 29.796875 7.1875 29.515625 7.578125 C 29.179688 7.1875 28.726562 6.910156 28.164062 6.910156 C 27.207031 6.910156 26.476562 7.6875 26.476562 8.578125 C 26.363281 10.695312 29.460938 12.640625 29.460938 12.640625 Z M 29.460938 12.640625 " fill-opacity="1" fill-rule="nonzero"/></g></svg>