<svg xmlns="http://www.w3.org/2000/svg" xmlns:xlink="http://www.w3.org/1999/xlink" width="79" zoomAndPan="magnify" viewBox="0 0 59.25 68.999997" height="92" preserveAspectRatio="xMidYMid meet" version="1.0"><defs><filter x="0%" y="0%" width="100%" height="100%" id="b2e8e76f5c"><feColorMatrix values="0 0 0 0 1 0 0 0 0 1 0 0 0 0 1 0 0 0 1 0" color-interpolation-filters="sRGB"/></filter><clipPath id="12d7994c7c"><path d="M 0 0.429688 L 58.507812 0.429688 L 58.507812 68.566406 L 0 68.566406 Z M 0 0.429688 " clip-rule="nonzero"/></clipPath><clipPath id="63a260bbac"><path d="M 0.664062 51 L 17 51 L 17 68.519531 L 0.664062 68.519531 Z M 0.664062 51 " clip-rule="nonzero"/></clipPath><clipPath id="53c162c245"><path d="M 0.664062 1.121094 L 57.691406 1.121094 L 57.691406 59 L 0.664062 59 Z M 0.664062 1.121094 " clip-rule="nonzero"/></clipPath><clipPath id="7097cbd7d0"><path d="M 0.664062 1.121094 L 30 1.121094 L 30 59 L 0.664062 59 Z M 0.664062 1.121094 " clip-rule="nonzero"/></clipPath><mask id="0a48c116d3"><g filter="url(#b2e8e76f5c)"><rect x="-5.925" width="71.1" fill="#000000" y="-6.9" height="82.799996" fill-opacity="0.15"/></g></mask><clipPath id="efaf96410d"><path d="M 0.664062 0.121094 L 29.863281 0.121094 L 29.863281 57.96875 L 0.664062 57.96875 Z M 0.664062 0.121094 " clip-rule="nonzero"/></clipPath><clipPath id="91e62fc9b9"><rect x="0" width="30" y="0" height="58"/></clipPath><clipPath id="89483aec02"><path d="M 7.203125 36 L 52.382812 36 L 52.382812 53.148438 L 7.203125 53.148438 Z M 7.203125 36 " clip-rule="nonzero"/></clipPath></defs><g clip-path="url(#12d7994c7c)"><path fill="#ffffff" d="M 0 0.429688 L 58.507812 0.429688 L 58.507812 68.570312 L 0 68.570312 Z M 0 0.429688 " fill-opacity="1" fill-rule="nonzero"/></g><g clip-path="url(#63a260bbac)"><path fill="#e8959a" d="M 0.742188 54.472656 L 0.742188 58.265625 L 16.324219 68.480469 L 16.324219 51.796875 Z M 0.742188 54.472656 " fill-opacity="1" fill-rule="nonzero"/></g><g clip-path="url(#53c162c245)"><path fill="#f4c1bf" d="M 0.742188 1.082031 L 57.636719 1.082031 L 57.636719 58.234375 L 0.742188 58.234375 Z M 0.742188 1.082031 " fill-opacity="1" fill-rule="nonzero"/></g><g clip-path="url(#7097cbd7d0)"><g mask="url(#0a48c116d3)"><g transform="matrix(1, 0, 0, 1, 0, 1)"><g clip-path="url(#91e62fc9b9)"><g clip-path="url(#efaf96410d)"><path fill="#f4c1bf" d="M 0.742188 0.0820312 L 29.191406 0.0820312 L 29.191406 57.234375 L 0.742188 57.234375 Z M 0.742188 0.0820312 " fill-opacity="1" fill-rule="nonzero"/></g></g></g></g></g><path fill="#f4c1bf" d="M 37.867188 24.289062 L 37.867188 17.925781 L 35.304688 17.925781 L 35.304688 21.714844 L 28.886719 15.269531 L 16.074219 28.140625 L 17.886719 29.960938 L 28.886719 18.914062 L 39.898438 29.972656 L 41.714844 28.152344 Z M 37.867188 24.289062 " fill-opacity="1" fill-rule="nonzero"/><path fill="#f4c1bf" d="M 19.921875 30.882812 L 19.921875 41.105469 L 26.34375 41.105469 L 26.34375 34.667969 L 31.445312 34.667969 L 31.445312 41.105469 L 37.867188 41.105469 L 37.867188 30.882812 L 28.894531 21.789062 Z M 19.921875 30.882812 " fill-opacity="1" fill-rule="nonzero"/><path fill="#ffffff" d="M 24.574219 23.484375 L 29.792969 28.71875 L 35.027344 23.484375 L 35.703125 22.800781 C 36.035156 22.449219 36.292969 22.050781 36.46875 21.601562 C 36.648438 21.152344 36.734375 20.683594 36.730469 20.199219 C 36.722656 19.71875 36.628906 19.253906 36.441406 18.804688 C 36.25 18.359375 35.988281 17.964844 35.644531 17.625 C 35.304688 17.28125 34.910156 17.019531 34.464844 16.832031 C 34.015625 16.644531 33.550781 16.546875 33.070312 16.539062 C 32.585938 16.535156 32.117188 16.621094 31.667969 16.800781 C 31.21875 16.976562 30.820312 17.234375 30.46875 17.566406 L 29.785156 18.242188 L 29.109375 17.566406 C 28.757812 17.234375 28.355469 16.980469 27.90625 16.804688 C 27.453125 16.628906 26.988281 16.542969 26.503906 16.550781 C 26.019531 16.558594 25.554688 16.65625 25.109375 16.847656 C 24.664062 17.035156 24.273438 17.304688 23.933594 17.648438 C 23.589844 17.992188 23.328125 18.386719 23.140625 18.832031 C 22.957031 19.28125 22.863281 19.746094 22.859375 20.226562 C 22.855469 20.710938 22.945312 21.179688 23.125 21.628906 C 23.304688 22.078125 23.5625 22.476562 23.898438 22.824219 Z M 24.574219 23.484375 " fill-opacity="1" fill-rule="nonzero"/><path fill="#ffffff" d="M 29.117188 44.230469 C 29.265625 44.5 29.492188 44.632812 29.796875 44.632812 C 30.101562 44.632812 30.328125 44.5 30.476562 44.230469 L 40.796875 25.785156 C 41.226562 24.851562 41.542969 23.878906 41.738281 22.871094 C 41.933594 21.859375 42.003906 20.839844 41.949219 19.8125 C 41.898438 18.785156 41.722656 17.78125 41.425781 16.792969 C 41.125 15.808594 40.714844 14.875 40.1875 13.992188 C 39.703125 13.140625 39.121094 12.367188 38.445312 11.660156 C 37.765625 10.957031 37.011719 10.34375 36.183594 9.828125 C 35.355469 9.308594 34.476562 8.898438 33.546875 8.597656 C 32.613281 8.296875 31.664062 8.113281 30.6875 8.050781 C 30.089844 8.007812 29.496094 8.007812 28.898438 8.050781 C 27.925781 8.113281 26.972656 8.292969 26.042969 8.59375 C 25.113281 8.894531 24.234375 9.300781 23.40625 9.816406 C 22.578125 10.332031 21.824219 10.941406 21.144531 11.644531 C 20.464844 12.347656 19.882812 13.121094 19.394531 13.96875 C 18.871094 14.855469 18.457031 15.796875 18.160156 16.785156 C 17.863281 17.773438 17.691406 18.785156 17.640625 19.816406 C 17.589844 20.847656 17.664062 21.871094 17.863281 22.886719 C 18.0625 23.898438 18.382812 24.875 18.820312 25.808594 Z M 20.734375 14.792969 C 21.15625 14.050781 21.664062 13.371094 22.253906 12.757812 C 22.84375 12.144531 23.5 11.609375 24.222656 11.15625 C 24.945312 10.703125 25.710938 10.347656 26.523438 10.082031 C 27.332031 9.820312 28.164062 9.660156 29.015625 9.605469 C 29.273438 9.605469 29.535156 9.605469 29.792969 9.605469 C 30.050781 9.605469 30.3125 9.605469 30.570312 9.605469 C 31.417969 9.660156 32.246094 9.820312 33.054688 10.082031 C 33.863281 10.339844 34.628906 10.695312 35.347656 11.148438 C 36.070312 11.597656 36.726562 12.125 37.316406 12.738281 C 37.90625 13.351562 38.414062 14.023438 38.835938 14.761719 C 39.296875 15.53125 39.65625 16.347656 39.917969 17.207031 C 40.179688 18.066406 40.335938 18.941406 40.382812 19.839844 C 40.433594 20.734375 40.375 21.625 40.207031 22.507812 C 40.039062 23.390625 39.769531 24.238281 39.394531 25.054688 L 29.792969 42.265625 L 20.203125 25.15625 C 19.824219 24.335938 19.546875 23.484375 19.375 22.59375 C 19.203125 21.707031 19.140625 20.8125 19.1875 19.910156 C 19.230469 19.003906 19.386719 18.121094 19.648438 17.253906 C 19.910156 16.390625 20.273438 15.570312 20.734375 14.792969 Z M 20.734375 14.792969 " fill-opacity="1" fill-rule="nonzero"/><g clip-path="url(#89483aec02)"><path fill="#ffffff" d="M 42.296875 36.9375 C 41.371094 36.703125 40.398438 36.492188 39.394531 36.316406 C 39.179688 36.277344 38.984375 36.320312 38.804688 36.445312 C 38.628906 36.570312 38.519531 36.742188 38.480469 36.957031 C 38.445312 37.171875 38.488281 37.367188 38.613281 37.546875 C 38.738281 37.726562 38.910156 37.832031 39.125 37.871094 C 40.089844 38.042969 41.019531 38.242188 41.914062 38.46875 C 47.359375 39.859375 50.796875 42.117188 50.796875 44.355469 C 50.789062 47.839844 42.351562 51.59375 29.792969 51.59375 C 17.234375 51.59375 8.796875 47.839844 8.796875 44.324219 C 8.796875 41.695312 13.464844 39.089844 20.460938 37.839844 C 20.675781 37.800781 20.847656 37.691406 20.972656 37.515625 C 21.097656 37.335938 21.140625 37.140625 21.101562 36.925781 C 21.0625 36.710938 20.957031 36.542969 20.777344 36.417969 C 20.601562 36.289062 20.402344 36.246094 20.191406 36.285156 C 12.203125 37.738281 7.242188 40.808594 7.242188 44.324219 C 7.242188 49.261719 17.148438 53.148438 29.792969 53.148438 C 42.4375 53.148438 52.34375 49.261719 52.34375 44.324219 C 52.34375 41.253906 48.679688 38.554688 42.296875 36.9375 Z M 42.296875 36.9375 " fill-opacity="1" fill-rule="nonzero"/></g></svg>