<svg xmlns="http://www.w3.org/2000/svg" xmlns:xlink="http://www.w3.org/1999/xlink" width="79" zoomAndPan="magnify" viewBox="0 0 59.25 68.999997" height="92" preserveAspectRatio="xMidYMid meet" version="1.0"><defs><filter x="0%" y="0%" width="100%" height="100%" id="fd7694714a"><feColorMatrix values="0 0 0 0 1 0 0 0 0 1 0 0 0 0 1 0 0 0 1 0" color-interpolation-filters="sRGB"/></filter><clipPath id="0deb4979a9"><path d="M 0 0.429688 L 58.507812 0.429688 L 58.507812 68.566406 L 0 68.566406 Z M 0 0.429688 " clip-rule="nonzero"/></clipPath><clipPath id="bb08b3c918"><path d="M 0.664062 51 L 17 51 L 17 68 L 0.664062 68 Z M 0.664062 51 " clip-rule="nonzero"/></clipPath><clipPath id="0935dc1256"><path d="M 0.664062 0.605469 L 57.691406 0.605469 L 57.691406 58 L 0.664062 58 Z M 0.664062 0.605469 " clip-rule="nonzero"/></clipPath><clipPath id="f0e332ab93"><path d="M 0.664062 0.605469 L 30 0.605469 L 30 59 L 0.664062 59 Z M 0.664062 0.605469 " clip-rule="nonzero"/></clipPath><mask id="0a0f00dfd1"><g filter="url(#fd7694714a)"><rect x="-5.925" width="71.1" fill="#000000" y="-6.9" height="82.799996" fill-opacity="0.15"/></g></mask><clipPath id="631ec9f3dc"><path d="M 0.664062 0.605469 L 29.863281 0.605469 L 29.863281 58 L 0.664062 58 Z M 0.664062 0.605469 " clip-rule="nonzero"/></clipPath><clipPath id="50f07d8f6d"><rect x="0" width="30" y="0" height="59"/></clipPath><clipPath id="34c9f23663"><path d="M 11.304688 7.453125 L 51.300781 7.453125 L 51.300781 52.632812 L 11.304688 52.632812 Z M 11.304688 7.453125 " clip-rule="nonzero"/></clipPath></defs><g clip-path="url(#0deb4979a9)"><path fill="#ffffff" d="M 0 0.429688 L 58.507812 0.429688 L 58.507812 68.570312 L 0 68.570312 Z M 0 0.429688 " fill-opacity="1" fill-rule="nonzero"/></g><g clip-path="url(#bb08b3c918)"><path fill="#e8959a" d="M 0.742188 53.953125 L 0.742188 57.75 L 16.324219 67.964844 L 16.324219 51.277344 Z M 0.742188 53.953125 " fill-opacity="1" fill-rule="nonzero"/></g><g clip-path="url(#0935dc1256)"><path fill="#f4c1bf" d="M 0.742188 0.566406 L 57.636719 0.566406 L 57.636719 57.71875 L 0.742188 57.71875 Z M 0.742188 0.566406 " fill-opacity="1" fill-rule="nonzero"/></g><g clip-path="url(#f0e332ab93)"><g mask="url(#0a0f00dfd1)"><g transform="matrix(1, 0, 0, 1, 0, -0.000000000000000222)"><g clip-path="url(#50f07d8f6d)"><g clip-path="url(#631ec9f3dc)"><path fill="#f4c1bf" d="M 0.742188 0.566406 L 29.191406 0.566406 L 29.191406 57.71875 L 0.742188 57.71875 Z M 0.742188 0.566406 " fill-opacity="1" fill-rule="nonzero"/></g></g></g></g></g><path fill="#f4c1bf" d="M 32.320312 26.628906 L 32.320312 21.71875 L 29.742188 20.425781 L 29.742188 17.84375 L 31.042969 17.84375 L 31.042969 16.550781 L 29.742188 16.550781 L 29.742188 15.257812 L 28.457031 15.257812 L 28.457031 16.550781 L 27.160156 16.550781 L 27.160156 17.84375 L 28.457031 17.84375 L 28.457031 20.425781 L 25.886719 21.71875 L 25.886719 26.625 L 20.742188 30.761719 L 20.742188 41.09375 L 27.171875 41.09375 L 27.171875 35.925781 C 27.171875 34.855469 28.035156 33.988281 29.101562 33.988281 C 30.167969 33.988281 31.03125 34.855469 31.03125 35.925781 L 31.03125 41.09375 L 37.460938 41.09375 L 37.460938 30.761719 Z M 32.320312 26.628906 " fill-opacity="1" fill-rule="nonzero"/><g clip-path="url(#34c9f23663)"><path fill="#ffffff" d="M 50.929688 38.304688 L 45.640625 29.828125 C 45.476562 29.574219 45.28125 29.34375 45.054688 29.136719 C 44.832031 28.933594 44.585938 28.757812 44.316406 28.613281 C 44.050781 28.46875 43.769531 28.355469 43.472656 28.28125 C 43.175781 28.207031 42.875 28.171875 42.570312 28.171875 C 42.265625 28.171875 41.964844 28.207031 41.671875 28.28125 C 41.375 28.355469 41.09375 28.46875 40.824219 28.613281 C 40.554688 28.757812 40.308594 28.933594 40.085938 29.136719 C 39.863281 29.34375 39.667969 29.574219 39.5 29.828125 L 37.480469 33.070312 L 37.480469 26.117188 C 37.492188 26.019531 37.535156 25.945312 37.609375 25.882812 C 37.683594 25.824219 37.769531 25.796875 37.867188 25.800781 C 38.246094 25.816406 38.601562 25.726562 38.929688 25.542969 C 39.261719 25.355469 39.519531 25.101562 39.707031 24.769531 C 39.878906 24.472656 39.957031 24.152344 39.945312 23.808594 C 39.9375 23.464844 39.839844 23.148438 39.652344 22.859375 L 34.335938 14.394531 C 33.796875 13.570312 33.046875 13.058594 32.078125 12.863281 L 33.949219 10.953125 C 34.125 10.78125 34.261719 10.578125 34.355469 10.347656 C 34.449219 10.121094 34.496094 9.882812 34.496094 9.636719 C 34.496094 9.390625 34.449219 9.152344 34.355469 8.921875 C 34.261719 8.695312 34.125 8.492188 33.949219 8.316406 C 33.589844 7.949219 33.148438 7.769531 32.628906 7.769531 C 32.097656 7.757812 31.640625 7.941406 31.265625 8.316406 C 31.089844 8.144531 30.886719 8.007812 30.65625 7.914062 C 30.425781 7.816406 30.183594 7.769531 29.9375 7.769531 C 29.6875 7.769531 29.449219 7.816406 29.21875 7.914062 C 28.988281 8.007812 28.785156 8.144531 28.609375 8.316406 C 28.433594 8.492188 28.296875 8.695312 28.199219 8.925781 C 28.105469 9.152344 28.058594 9.390625 28.058594 9.640625 C 28.058594 9.886719 28.105469 10.125 28.199219 10.355469 C 28.296875 10.585938 28.433594 10.785156 28.609375 10.960938 L 30.496094 12.820312 C 29.5 13.015625 28.734375 13.539062 28.195312 14.394531 L 22.917969 22.84375 C 22.71875 23.152344 22.621094 23.488281 22.621094 23.855469 C 22.625 24.117188 22.683594 24.367188 22.789062 24.609375 C 22.894531 24.851562 23.042969 25.0625 23.234375 25.242188 C 23.425781 25.425781 23.644531 25.5625 23.890625 25.660156 C 24.136719 25.753906 24.390625 25.800781 24.65625 25.796875 C 24.75 25.789062 24.835938 25.816406 24.910156 25.875 C 24.984375 25.9375 25.027344 26.011719 25.039062 26.109375 L 25.039062 33.0625 L 23.019531 29.828125 C 22.851562 29.574219 22.660156 29.34375 22.433594 29.136719 C 22.210938 28.933594 21.964844 28.757812 21.695312 28.613281 C 21.429688 28.46875 21.144531 28.355469 20.851562 28.28125 C 20.554688 28.207031 20.253906 28.171875 19.949219 28.171875 C 19.644531 28.171875 19.34375 28.207031 19.046875 28.28125 C 18.753906 28.355469 18.46875 28.46875 18.203125 28.613281 C 17.933594 28.757812 17.6875 28.933594 17.464844 29.136719 C 17.238281 29.34375 17.042969 29.574219 16.878906 29.828125 L 11.605469 38.296875 C 11.40625 38.605469 11.304688 38.941406 11.304688 39.304688 C 11.3125 39.570312 11.367188 39.820312 11.472656 40.0625 C 11.582031 40.300781 11.730469 40.511719 11.917969 40.695312 C 12.109375 40.875 12.328125 41.015625 12.574219 41.109375 C 12.820312 41.207031 13.074219 41.25 13.339844 41.246094 C 13.433594 41.238281 13.519531 41.265625 13.59375 41.328125 C 13.667969 41.386719 13.710938 41.464844 13.722656 41.558594 L 13.722656 52.472656 L 48.804688 52.472656 L 48.804688 41.558594 C 48.816406 41.464844 48.855469 41.386719 48.933594 41.324219 C 49.007812 41.265625 49.09375 41.238281 49.1875 41.246094 C 49.554688 41.253906 49.902344 41.167969 50.222656 40.988281 C 50.542969 40.808594 50.796875 40.5625 50.984375 40.246094 C 51.160156 39.941406 51.242188 39.617188 51.234375 39.265625 C 51.222656 38.917969 51.121094 38.597656 50.929688 38.304688 Z M 24.640625 41.558594 L 24.640625 50.945312 L 15.257812 50.945312 L 15.257812 41.558594 C 15.253906 41.3125 15.203125 41.074219 15.101562 40.84375 C 15 40.617188 14.859375 40.417969 14.679688 40.246094 C 14.5 40.070312 14.296875 39.941406 14.0625 39.847656 C 13.832031 39.757812 13.589844 39.714844 13.339844 39.71875 C 13.214844 39.730469 13.101562 39.695312 13.003906 39.613281 C 12.90625 39.535156 12.851562 39.429688 12.839844 39.304688 C 12.839844 39.234375 12.859375 39.171875 12.902344 39.113281 L 18.214844 30.640625 C 18.3125 30.496094 18.425781 30.367188 18.554688 30.25 C 18.683594 30.136719 18.824219 30.035156 18.980469 29.957031 C 19.132812 29.875 19.292969 29.8125 19.460938 29.769531 C 19.628906 29.730469 19.800781 29.707031 19.976562 29.707031 C 20.148438 29.707031 20.320312 29.730469 20.488281 29.769531 C 20.660156 29.8125 20.820312 29.875 20.972656 29.957031 C 21.125 30.035156 21.269531 30.136719 21.398438 30.25 C 21.527344 30.367188 21.640625 30.496094 21.738281 30.640625 L 25.0625 35.988281 L 27.035156 39.144531 C 27.113281 39.265625 27.113281 39.390625 27.035156 39.511719 C 26.933594 39.683594 26.78125 39.761719 26.582031 39.757812 C 26.117188 39.757812 25.703125 39.90625 25.34375 40.199219 L 25.070312 40.429688 L 25.070312 40.476562 C 24.800781 40.785156 24.65625 41.148438 24.640625 41.558594 Z M 29.972656 50.945312 L 29.972656 44.96875 L 32.554688 44.96875 L 32.554688 50.945312 Z M 35.953125 50.945312 L 34.089844 50.945312 L 34.089844 44.203125 C 34.089844 43.992188 34.015625 43.8125 33.863281 43.664062 C 33.714844 43.515625 33.535156 43.441406 33.320312 43.441406 L 29.207031 43.441406 C 28.996094 43.441406 28.8125 43.515625 28.664062 43.664062 C 28.515625 43.8125 28.4375 43.992188 28.4375 44.203125 L 28.4375 50.945312 L 26.574219 50.945312 L 26.574219 41.246094 C 26.675781 41.242188 26.78125 41.230469 26.878906 41.207031 C 26.960938 41.210938 27.039062 41.210938 27.117188 41.207031 C 27.210938 41.179688 27.300781 41.144531 27.386719 41.101562 C 27.464844 41.074219 27.542969 41.042969 27.617188 41.007812 C 27.703125 40.953125 27.78125 40.894531 27.855469 40.828125 C 27.917969 40.785156 27.980469 40.738281 28.039062 40.6875 C 28.167969 40.5625 28.273438 40.417969 28.363281 40.261719 C 28.53125 39.960938 28.613281 39.640625 28.605469 39.300781 C 28.59375 38.957031 28.5 38.640625 28.316406 38.351562 L 26.574219 35.570312 L 26.574219 26.117188 C 26.570312 25.867188 26.515625 25.628906 26.417969 25.402344 C 26.316406 25.171875 26.175781 24.972656 25.996094 24.800781 C 25.816406 24.628906 25.609375 24.496094 25.378906 24.40625 C 25.144531 24.3125 24.90625 24.269531 24.65625 24.273438 C 24.527344 24.285156 24.417969 24.25 24.320312 24.171875 C 24.222656 24.089844 24.167969 23.988281 24.15625 23.863281 C 24.15625 23.792969 24.175781 23.726562 24.21875 23.671875 L 29.5 15.195312 C 29.597656 15.050781 29.710938 14.921875 29.839844 14.808594 C 29.96875 14.691406 30.109375 14.59375 30.261719 14.511719 C 30.417969 14.429688 30.578125 14.367188 30.746094 14.328125 C 30.914062 14.285156 31.085938 14.265625 31.261719 14.265625 C 31.433594 14.265625 31.605469 14.285156 31.773438 14.328125 C 31.941406 14.367188 32.105469 14.429688 32.257812 14.511719 C 32.410156 14.59375 32.550781 14.691406 32.683594 14.808594 C 32.8125 14.921875 32.925781 15.050781 33.023438 15.195312 L 38.3125 23.671875 C 38.386719 23.789062 38.386719 23.910156 38.3125 24.03125 C 38.210938 24.203125 38.058594 24.285156 37.859375 24.273438 C 37.609375 24.269531 37.367188 24.3125 37.132812 24.40625 C 36.902344 24.496094 36.695312 24.628906 36.515625 24.800781 C 36.335938 24.972656 36.195312 25.171875 36.097656 25.402344 C 35.996094 25.628906 35.945312 25.867188 35.9375 26.117188 L 35.9375 35.53125 L 34.210938 38.296875 C 34.011719 38.605469 33.914062 38.941406 33.914062 39.304688 C 33.910156 39.4375 33.925781 39.566406 33.949219 39.695312 C 33.949219 39.695312 33.949219 39.75 33.949219 39.78125 C 33.972656 39.875 34.003906 39.96875 34.042969 40.0625 L 34.042969 40.109375 C 34.089844 40.207031 34.140625 40.300781 34.203125 40.390625 L 34.203125 40.4375 C 34.265625 40.523438 34.335938 40.605469 34.410156 40.679688 C 34.492188 40.757812 34.578125 40.824219 34.671875 40.886719 L 34.742188 40.886719 C 34.828125 40.941406 34.921875 40.992188 35.019531 41.03125 L 35.117188 41.03125 C 35.207031 41.066406 35.300781 41.09375 35.394531 41.117188 L 35.554688 41.117188 C 35.632812 41.121094 35.714844 41.121094 35.792969 41.117188 Z M 49.640625 39.480469 C 49.539062 39.652344 49.386719 39.734375 49.1875 39.726562 C 48.9375 39.722656 48.699219 39.765625 48.464844 39.855469 C 48.234375 39.949219 48.027344 40.078125 47.847656 40.253906 C 47.667969 40.425781 47.527344 40.625 47.425781 40.851562 C 47.328125 41.082031 47.273438 41.320312 47.269531 41.566406 L 47.269531 50.945312 L 37.882812 50.945312 L 37.882812 41.558594 C 37.882812 41.140625 37.75 40.769531 37.488281 40.445312 L 37.488281 40.398438 L 37.214844 40.167969 C 36.851562 39.867188 36.433594 39.71875 35.960938 39.71875 C 35.835938 39.730469 35.722656 39.695312 35.628906 39.613281 C 35.53125 39.535156 35.476562 39.429688 35.464844 39.304688 C 35.464844 39.234375 35.484375 39.171875 35.523438 39.113281 L 37.488281 35.964844 L 40.8125 30.617188 C 40.910156 30.472656 41.023438 30.34375 41.15625 30.230469 C 41.285156 30.117188 41.425781 30.019531 41.578125 29.9375 C 41.734375 29.855469 41.894531 29.796875 42.0625 29.753906 C 42.230469 29.710938 42.402344 29.691406 42.574219 29.691406 C 42.75 29.691406 42.917969 29.710938 43.089844 29.753906 C 43.257812 29.796875 43.417969 29.855469 43.570312 29.9375 C 43.726562 30.019531 43.867188 30.117188 43.996094 30.230469 C 44.125 30.34375 44.238281 30.472656 44.335938 30.617188 L 49.625 39.097656 C 49.71875 39.222656 49.722656 39.351562 49.640625 39.480469 Z M 49.640625 39.480469 " fill-opacity="1" fill-rule="nonzero"/></g><path fill="#ffffff" d="M 33.949219 22.234375 L 33.949219 19.613281 C 33.949219 19.507812 33.914062 19.417969 33.839844 19.34375 C 33.761719 19.269531 33.671875 19.230469 33.566406 19.230469 L 28.960938 19.230469 C 28.855469 19.230469 28.765625 19.269531 28.691406 19.34375 C 28.613281 19.417969 28.578125 19.507812 28.578125 19.613281 L 28.578125 24.199219 C 28.578125 24.304688 28.613281 24.394531 28.691406 24.46875 C 28.765625 24.542969 28.855469 24.578125 28.960938 24.578125 L 33.566406 24.578125 C 33.671875 24.578125 33.761719 24.542969 33.839844 24.46875 C 33.914062 24.394531 33.949219 24.304688 33.949219 24.199219 Z M 29.34375 19.996094 L 33.183594 19.996094 L 33.183594 21.851562 L 29.34375 21.851562 Z M 29.34375 23.816406 L 29.34375 22.617188 L 33.183594 22.617188 L 33.183594 23.816406 Z M 29.34375 23.816406 " fill-opacity="1" fill-rule="nonzero"/><path fill="#ffffff" d="M 45.082031 34.515625 L 40.476562 34.515625 C 40.371094 34.515625 40.277344 34.550781 40.203125 34.625 C 40.128906 34.699219 40.09375 34.789062 40.09375 34.894531 L 40.09375 39.480469 C 40.09375 39.585938 40.128906 39.675781 40.203125 39.75 C 40.277344 39.824219 40.371094 39.863281 40.476562 39.863281 L 45.082031 39.863281 C 45.1875 39.863281 45.277344 39.824219 45.351562 39.75 C 45.429688 39.675781 45.464844 39.585938 45.464844 39.480469 L 45.464844 34.894531 C 45.464844 34.789062 45.429688 34.699219 45.351562 34.625 C 45.277344 34.550781 45.1875 34.515625 45.082031 34.515625 Z M 40.859375 35.277344 L 44.699219 35.277344 L 44.699219 37.136719 L 40.859375 37.136719 Z M 40.859375 39.097656 L 40.859375 37.898438 L 44.699219 37.898438 L 44.699219 39.097656 Z M 40.859375 39.097656 " fill-opacity="1" fill-rule="nonzero"/><path fill="#ffffff" d="M 22.050781 34.515625 L 17.445312 34.515625 C 17.339844 34.515625 17.25 34.550781 17.175781 34.625 C 17.101562 34.699219 17.0625 34.789062 17.0625 34.894531 L 17.0625 39.480469 C 17.0625 39.585938 17.101562 39.675781 17.175781 39.75 C 17.25 39.824219 17.339844 39.863281 17.445312 39.863281 L 22.050781 39.863281 C 22.160156 39.863281 22.25 39.824219 22.324219 39.75 C 22.398438 39.675781 22.4375 39.585938 22.4375 39.480469 L 22.4375 34.894531 C 22.4375 34.789062 22.398438 34.699219 22.324219 34.625 C 22.25 34.550781 22.160156 34.515625 22.050781 34.515625 Z M 17.832031 35.277344 L 21.667969 35.277344 L 21.667969 37.136719 L 17.832031 37.136719 Z M 17.832031 39.097656 L 17.832031 37.898438 L 21.667969 37.898438 L 21.667969 39.097656 Z M 17.832031 39.097656 " fill-opacity="1" fill-rule="nonzero"/></svg>